<svg width="1133" height="284" viewBox="0 0 1133 284" fill="none" xmlns="http://www.w3.org/2000/svg">
<path d="M708.905 142L662.354 23.5066H678.605L719.4 129.474L760.027 23.5066H776.277L729.895 142H708.905ZM771.679 117.963C771.679 102.22 784.882 92.5713 814.675 90.7093L830.418 89.5243V86.4774C830.418 69.8883 822.8 64.6407 811.12 64.6407C799.779 64.6407 791.484 70.9039 789.792 81.0605H774.387C777.434 63.2865 792.5 52.2835 811.459 52.2835C831.772 52.2835 846.161 61.4245 846.161 88.678V114.916C846.161 126.934 848.192 136.752 850.223 142H834.819C833.634 138.953 832.618 134.552 832.28 128.289C827.371 137.599 818.399 143.693 802.995 143.693C782.682 143.693 771.679 131.674 771.679 117.963ZM787.422 117.455C787.422 125.072 793.346 132.182 806.888 132.182C822.123 132.182 830.418 121.856 830.418 109.16V100.866L817.722 101.882C796.901 103.236 787.422 107.298 787.422 117.455ZM882.175 105.775C882.175 123.38 889.454 131.336 901.981 131.336C916.2 131.336 925.51 121.348 925.51 102.389V53.9763H941.253V142H925.51V126.427C919.924 137.768 909.429 143.693 896.395 143.693C878.451 143.693 866.433 132.69 866.433 108.145V53.9763H882.175V105.775ZM963.413 23.5066H979.156V142H963.413V23.5066ZM1036.9 142C1016.76 144.539 1004.74 139.122 1004.74 119.148V66.672H991.876V53.9763H1004.74V33.6631H1020.48V53.9763H1036.9V66.672H1020.48V117.793C1020.48 129.135 1027.25 131.336 1036.9 129.981V142ZM1045.44 117.963C1045.44 102.22 1058.65 92.5713 1088.44 90.7093L1104.18 89.5243V86.4774C1104.18 69.8883 1096.57 64.6407 1084.89 64.6407C1073.54 64.6407 1065.25 70.9039 1063.56 81.0605H1048.15C1051.2 63.2865 1066.26 52.2835 1085.22 52.2835C1105.54 52.2835 1119.93 61.4245 1119.93 88.678V114.916C1119.93 126.934 1121.96 136.752 1123.99 142H1108.58C1107.4 138.953 1106.38 134.552 1106.04 128.289C1101.14 137.599 1092.16 143.693 1076.76 143.693C1056.45 143.693 1045.44 131.674 1045.44 117.963ZM1061.19 117.455C1061.19 125.072 1067.11 132.182 1080.65 132.182C1095.89 132.182 1104.18 121.856 1104.18 109.16V100.866L1091.49 101.882C1070.67 103.236 1061.19 107.298 1061.19 117.455ZM675.896 165.507H750.886V178.202H691.639V217.474H746.654V230.17H691.639V271.304H751.732V284H675.896V165.507ZM804.705 284L758.154 165.507H774.405L815.2 271.474L855.826 165.507H872.077L825.695 284H804.705ZM936.813 284L900.927 182.265V284H885.184V165.507H909.052L946.801 272.32L984.38 165.507H1008.25V284H992.505V182.265L956.619 284H936.813Z" fill="white"/>
<path d="M411.968 85.4569H328.008C324.711 85.4569 321.547 86.7635 319.216 89.0889L125.873 281.936H0V96.2073L74.8625 21.4517V228.489H85.5587L280.927 33.6257C288.743 25.8292 299.343 21.4517 310.395 21.4517H411.972V85.4569H411.968ZM619.032 21.4517H493.159L299.817 214.298C297.485 216.624 294.321 217.93 291.025 217.93H207.064V281.932H308.552C319.661 281.932 330.314 277.533 338.166 269.698L533.474 74.8983H544.17V249.826H423.551V281.936H544.17L555.282 270.841L565.644 260.495L619.036 207.183V21.4517H619.032Z" fill="white"/>
</svg>
